<?xml version="1.0" encoding="UTF-8"?>
<svg version="1.1" xmlns="http://www.w3.org/2000/svg" width="60" height="67">
<path d="M0 0 C3.5943953 0.46883417 5.23495065 1.91308735 8.0625 4.0703125 C12.87016182 7.5310001 18.23730324 8.81397047 23.95703125 9.84765625 C25.875 10.375 25.875 10.375 27.875 12.375 C28.17797852 14.55810547 28.17797852 14.55810547 28.25390625 17.2421875 C28.28806641 18.21027344 28.32222656 19.17835937 28.35742188 20.17578125 C28.38384766 21.19027344 28.41027344 22.20476563 28.4375 23.25 C28.49760435 25.24751052 28.56126963 27.24491784 28.62890625 29.2421875 C28.65283447 30.13019043 28.6767627 31.01819336 28.70141602 31.93310547 C28.78779798 34.36356107 28.78779798 34.36356107 29.51538086 36.57080078 C29.63405518 37.16618652 29.75272949 37.76157227 29.875 38.375 C29.215 39.035 28.555 39.695 27.875 40.375 C27.875 41.695 27.875 43.015 27.875 44.375 C26.885 44.375 25.895 44.375 24.875 44.375 C24.6275 45.261875 24.38 46.14875 24.125 47.0625 C20.7332828 56.05055058 12.36489104 62.40132043 3.875 66.375 C1.02083932 67.57097421 0.08966338 67.45008677 -2.89453125 66.40625 C-12.88775814 61.37756587 -20.59063592 55.34763591 -24.72265625 44.58984375 C-26.83052343 38.10976298 -26.44698801 31.5541425 -26.3125 24.8125 C-26.29896484 23.51763672 -26.28542969 22.22277344 -26.27148438 20.88867188 C-26.2363737 17.71700786 -26.18719347 14.5462291 -26.125 11.375 C-23.0640573 10.13603196 -20.03560999 9.01653598 -16.875 8.0625 C-11.13896969 6.18577867 -5.58249395 0.98514599 0 0 Z M-0.125 5.375 C-1.15625 6.096875 -2.1875 6.81875 -3.25 7.5625 C-9.08713042 11.25021777 -15.60779377 13.22395581 -22.125 15.375 C-22.70629364 36.58436328 -22.70629364 36.58436328 -12.12890625 54.4921875 C-7.8602176 58.38161648 -4.28675117 61.375 1.6875 61.375 C8.86979417 59.12173124 14.61185354 53.46731657 18.875 47.375 C19.205 46.385 19.535 45.395 19.875 44.375 C15.255 44.375 10.635 44.375 5.875 44.375 C5.545 45.035 5.215 45.695 4.875 46.375 C2.895 46.375 0.915 46.375 -1.125 46.375 C-1.15078125 45.61574219 -1.1765625 44.85648438 -1.203125 44.07421875 C-1.25984375 43.08035156 -1.3165625 42.08648437 -1.375 41.0625 C-1.42140625 40.07636719 -1.4678125 39.09023438 -1.515625 38.07421875 C-2.27208497 34.72348903 -3.40120909 34.28916015 -6.125 32.375 C-6.87274777 29.64791989 -6.68854414 27.13521619 -6.125 24.375 C-3.90800364 21.6463891 -2.53855329 21.42563918 0.9375 21 C3.875 21.375 3.875 21.375 5.6875 22.5625 C7.24427163 24.93862512 7.7393141 26.52559619 7.875 29.375 C5.68097015 33.97201493 5.68097015 33.97201493 2.875 35.375 C2.875 37.685 2.875 39.995 2.875 42.375 C4.36 42.87 4.36 42.87 5.875 43.375 C6.205 40.735 6.535 38.095 6.875 35.375 C12.155 35.045 17.435 34.715 22.875 34.375 C22.875 28.105 22.875 21.835 22.875 15.375 C17.92724611 13.57346935 17.92724611 13.57346935 12.97436523 11.78613281 C8.2980076 10.05790073 4.14241211 7.95451323 -0.125 5.375 Z M-1.125 25.375 C-1.455 27.025 -1.785 28.675 -2.125 30.375 C0.92413228 31.38611093 0.92413228 31.38611093 3.875 30.375 C3.875 29.055 3.875 27.735 3.875 26.375 C2.225 26.045 0.575 25.715 -1.125 25.375 Z " fill="#DAAF3D" transform="translate(29.125,-0.375)"/>
<path d="M0 0 C0.66 0.33 1.32 0.66 2 1 C-3.40235255 5.20182976 -11.04159718 9 -18 9 C-17.62496765 30.35397643 -17.62496765 30.35397643 -6.81640625 48.15234375 C-1.09363634 52.87466356 -1.09363634 52.87466356 6 54 C13.160413 51.94344532 17.5665398 46.72701342 22 41 C22.495 40.01 22.495 40.01 23 39 C19.04 38.67 15.08 38.34 11 38 C11 37.67 11 37.34 11 37 C15.95 37 20.9 37 26 37 C21.45343256 46.76670042 16.72213266 52.14683784 7 57 C4.69140625 57.66796875 4.69140625 57.66796875 3 58 C11.99411632 56.59166862 18.31926104 51.40118884 23.625 44.24609375 C25.06006501 41.90188244 26.05771465 39.57769406 27 37 C28.32 37 29.64 37 31 37 C31 36.34 31 35.68 31 35 C30.34 35 29.68 35 29 35 C29.16298584 34.29335205 29.32597168 33.5867041 29.49389648 32.85864258 C30.01353414 29.92355461 30.11358349 27.24011307 30.09765625 24.26171875 C30.09443359 23.19501953 30.09121094 22.12832031 30.08789062 21.02929688 C30.07951172 19.92650391 30.07113281 18.82371094 30.0625 17.6875 C30.05798828 16.56537109 30.05347656 15.44324219 30.04882812 14.28710938 C30.03707313 11.5246849 30.02064077 8.76237002 30 6 C28.68 5.34 27.36 4.68 26 4 C30.875 4.875 30.875 4.875 32 6 C32.14518296 7.58597419 32.22713355 9.17784547 32.28125 10.76953125 C32.33732422 12.22649414 32.33732422 12.22649414 32.39453125 13.71289062 C32.44673828 15.24719727 32.44673828 15.24719727 32.5 16.8125 C32.56906241 18.81914677 32.64183728 20.82567003 32.71875 22.83203125 C32.74904297 23.72639893 32.77933594 24.6207666 32.81054688 25.54223633 C32.9140501 27.9862013 32.9140501 27.9862013 33.64257812 30.19799805 C33.81950195 31.08998901 33.81950195 31.08998901 34 32 C33.34 32.66 32.68 33.32 32 34 C32 35.32 32 36.64 32 38 C31.01 38 30.02 38 29 38 C28.7525 38.886875 28.505 39.77375 28.25 40.6875 C24.8582828 49.67555058 16.48989104 56.02632043 8 60 C5.14583932 61.19597421 4.21466338 61.07508677 1.23046875 60.03125 C-8.76275814 55.00256587 -16.46563592 48.97263591 -20.59765625 38.21484375 C-22.70552343 31.73476298 -22.32198801 25.1791425 -22.1875 18.4375 C-22.17396484 17.14263672 -22.16042969 15.84777344 -22.14648438 14.51367188 C-22.1113737 11.34200786 -22.06219347 8.1712291 -22 5 C-20.35 4.67 -18.7 4.34 -17 4 C-17.33 4.66 -17.66 5.32 -18 6 C-18.99 6 -19.98 6 -21 6 C-20.94739565 9.93852375 -20.85215802 13.87497461 -20.75 17.8125 C-20.73582031 18.91271484 -20.72164062 20.01292969 -20.70703125 21.14648438 C-20.36385893 32.78002608 -17.36415509 42.63584491 -9 51 C-6.44346135 52.91180736 -3.8344067 54.53494303 -1 56 C-1.98390684 55.01609316 -3.0472324 54.1137311 -4.109375 53.21484375 C-11.46937555 46.86738765 -17.28110206 40.86726147 -19 31 C-19.23199175 26.85008541 -19.18910758 22.71716432 -19.125 18.5625 C-19.11597656 17.44939453 -19.10695313 16.33628906 -19.09765625 15.18945312 C-19.0742224 12.45940977 -19.041414 9.7298199 -19 7 C-17.69675781 6.61908203 -17.69675781 6.61908203 -16.3671875 6.23046875 C-15.21476563 5.88628906 -14.06234375 5.54210937 -12.875 5.1875 C-11.73804688 4.85105469 -10.60109375 4.51460937 -9.4296875 4.16796875 C-5.95075697 3.07647731 -5.95075697 3.07647731 -2.6953125 1.30078125 C-1.80585938 0.87152344 -0.91640625 0.44226563 0 0 Z " fill="#D8AD3F" transform="translate(25,6)"/>
<path d="M0 0 C4.13405405 0.88283701 7.79427716 2.18462057 11.6796875 3.8125 C12.35515625 4.08578125 13.030625 4.3590625 13.7265625 4.640625 C18.64939413 6.65720663 18.64939413 6.65720663 19.8046875 7.8125 C19.87782317 10.34299402 19.89716277 12.84554837 19.8671875 15.375 C19.86267578 16.08591797 19.85816406 16.79683594 19.85351562 17.52929688 C19.84169614 19.29040013 19.82376013 21.05146036 19.8046875 22.8125 C17.8671875 23.375 17.8671875 23.375 15.8046875 23.8125 C14.8046875 22.8125 14.8046875 22.8125 14.70703125 20.08984375 C14.71863281 18.98769531 14.73023438 17.88554687 14.7421875 16.75 C14.75121094 15.64527344 14.76023438 14.54054688 14.76953125 13.40234375 C14.78113281 12.54769531 14.79273438 11.69304688 14.8046875 10.8125 C13.9796875 10.73 13.1546875 10.6475 12.3046875 10.5625 C9.22139734 9.90179496 7.43804247 9.17098755 4.7421875 7.6875 C2.286924 6.41577562 1.10225433 5.8125 -1.6953125 5.8125 C-3.90455 6.696195 -5.90752708 7.70322304 -8.0078125 8.8125 C-12.10667439 10.96733025 -15.59716159 11.48406065 -20.1953125 11.8125 C-20.5253125 10.8225 -20.8553125 9.8325 -21.1953125 8.8125 C-19.82936319 6.08060139 -18.0490586 5.90417909 -15.27734375 4.95703125 C-14.63152344 4.74433594 -13.98570313 4.53164062 -13.3203125 4.3125 C-0.32551001 -0.01910083 -0.32551001 -0.01910083 0 0 Z " fill="#DBAE3C" transform="translate(30.1953125,9.1875)"/>
<path d="M0 0 C1.32 0 2.64 0 4 0 C4.09796875 0.7734375 4.1959375 1.546875 4.296875 2.34375 C5.6545505 11.8006621 7.51842786 18.76995115 15.18359375 24.87890625 C17.71675459 26.44238402 20.0537073 26.8562784 23 27 C23 26.34 23 25.68 23 25 C24.390625 23.45703125 24.390625 23.45703125 26.25 21.8125 C26.85328125 21.26207031 27.4565625 20.71164063 28.078125 20.14453125 C30 19 30 19 32.234375 19.32421875 C33.10835937 19.65873047 33.10835937 19.65873047 34 20 C33.52277765 24.29500117 31.16686508 26.24620428 28 29 C24.96976287 31.20003518 22.30151039 33 18.4375 33 C10.64401244 29.80267177 5.27088535 23.93620127 1.125 16.75 C-0.42647908 11.57840308 -0.96594593 6.39756983 -1 1 C-0.67 0.67 -0.34 0.34 0 0 Z " fill="#D8A83D" transform="translate(10,26)"/>
<path d="M0 0 C3.61992731 0.47216443 5.41539453 1.95119566 8.2265625 4.18359375 C9.98056907 5.57653189 9.98056907 5.57653189 12.875 6.375 C12.875 7.365 12.875 8.355 12.875 9.375 C13.535 9.375 14.195 9.375 14.875 9.375 C14.875 10.035 14.875 10.695 14.875 11.375 C9.71983096 10.13775943 6.26452779 8.46762185 1.875 5.375 C0.885 5.045 -0.105 4.715 -1.125 4.375 C-1.455 5.365 -1.785 6.355 -2.125 7.375 C-4.6875 8.375 -4.6875 8.375 -8.125 9.375 C-10.05806216 10.13022469 -11.98197319 10.90450282 -13.90234375 11.69140625 C-16.93395915 12.62380114 -19.98408014 12.97813287 -23.125 13.375 C-23.07234141 17.14689848 -22.97709505 20.91664144 -22.875 24.6875 C-22.86082031 25.74001953 -22.84664062 26.79253906 -22.83203125 27.87695312 C-22.51325642 38.23713499 -20.27463054 47.00412242 -13.0078125 54.6484375 C-10.21668343 57.2079376 -7.29520004 59.30466528 -4.125 61.375 C-4.455 62.035 -4.785 62.695 -5.125 63.375 C-14.83401191 57.76094549 -20.61444306 51.09278745 -24.32885742 40.48461914 C-25.71640819 35.06504412 -25.54430766 29.74534958 -25.375 24.1875 C-25.35695313 23.04474609 -25.33890625 21.90199219 -25.3203125 20.72460938 C-25.27371635 17.94048953 -25.20832038 15.15822111 -25.125 12.375 C-24.135 12.045 -23.145 11.715 -22.125 11.375 C-21.795 10.715 -21.465 10.055 -21.125 9.375 C-19.375 8.69921875 -19.375 8.69921875 -17.125 8.0625 C-11.26618433 6.2316201 -5.65916669 0.99867648 0 0 Z " fill="#E5C44F" transform="translate(29.125,-0.375)"/>
<path d="M0 0 C0.33 0.66 0.66 1.32 1 2 C2.32 2.33 3.64 2.66 5 3 C5 10.92 5 18.84 5 27 C5.66 27.33 6.32 27.66 7 28 C6.01 28 5.02 28 4 28 C4 29.32 4 30.64 4 32 C4.66 32 5.32 32 6 32 C6 32.66 6 33.32 6 34 C4.68 34 3.36 34 2 34 C1.896875 34.73347656 1.79375 35.46695313 1.6875 36.22265625 C-0.17749919 43.75682913 -6.56285753 48.86600887 -12.88671875 52.80859375 C-18.65078026 56.05820329 -18.65078026 56.05820329 -21.25 55.625 C-21.8275 55.41875 -22.405 55.2125 -23 55 C-23 54.67 -23 54.34 -23 54 C-22.443125 53.85304687 -21.88625 53.70609375 -21.3125 53.5546875 C-12.72978956 51.03206653 -7.16896051 47.35557396 -2.5 39.625 C-1.2625 37.335625 -1.2625 37.335625 0 35 C-6.93 34.505 -6.93 34.505 -14 34 C-13.34 32.35 -12.68 30.7 -12 29 C-12.33 28.34 -12.66 27.68 -13 27 C-7.72 27 -2.44 27 3 27 C2.67 19.74 2.34 12.48 2 5 C-0.31 4.01 -2.62 3.02 -5 2 C-5 1.67 -5 1.34 -5 1 C-3.35 0.67 -1.7 0.34 0 0 Z " fill="#EDD351" transform="translate(50,9)"/>
<path d="M0 0 C4.06753035 0.49303398 6.90520309 1.94239815 10.3515625 4.01171875 C12.18732107 5.11230387 14.07088095 6.07402286 16 7 C16 6.34 16 5.68 16 5 C15.34 5 14.68 5 14 5 C14 4.34 14 3.68 14 3 C16.92879371 3.62759865 19.36095629 4.58622659 22 6 C20.68 6.33 19.36 6.66 18 7 C21.465 8.485 21.465 8.485 25 10 C25 17.26 25 24.52 25 32 C20.05 32.33 15.1 32.66 10 33 C16.93 33.495 16.93 33.495 24 34 C24 34.33 24 34.66 24 35 C19.05 35 14.1 35 9 35 C8.34 36.32 7.68 37.64 7 39 C6.90234375 32.84765625 6.90234375 32.84765625 7 31 C8 30 8 30 11.59765625 29.90234375 C13.08597255 29.90808728 14.57426296 29.92110109 16.0625 29.9375 C18.681875 29.958125 21.30125 29.97875 24 30 C24 23.73 24 17.46 24 11 C21.03 10.34 18.06 9.68 15 9 C11.6015625 7.52734375 11.6015625 7.52734375 8.625 5.9375 C5.73253196 4.40905113 3.10510686 3.03503562 0 2 C0 1.34 0 0.68 0 0 Z " fill="#D8AB3C" transform="translate(28,4)"/>
<path d="M0 0 C3.5625 0.3125 3.5625 0.3125 5.5625 1.375 C7.17897822 4.50692656 6.34915296 6.98435286 5.5625 10.3125 C4.9025 10.9725 4.2425 11.6325 3.5625 12.3125 C2.5725 12.3125 1.5825 12.3125 0.5625 12.3125 C0.5625 15.6125 0.5625 18.9125 0.5625 22.3125 C1.5525 22.6425 2.5425 22.9725 3.5625 23.3125 C2.2425 23.3125 0.9225 23.3125 -0.4375 23.3125 C-0.4375 19.6825 -0.4375 16.0525 -0.4375 12.3125 C-1.7575 11.9825 -3.0775 11.6525 -4.4375 11.3125 C-5.4275 10.6525 -6.4175 9.9925 -7.4375 9.3125 C-5.14439655 0.46767241 -5.14439655 0.46767241 0 0 Z M-1.4375 3.3125 C-1.7675 4.9625 -2.0975 6.6125 -2.4375 8.3125 C0.61163228 9.32361093 0.61163228 9.32361093 3.5625 8.3125 C3.5625 6.9925 3.5625 5.6725 3.5625 4.3125 C1.9125 3.9825 0.2625 3.6525 -1.4375 3.3125 Z " fill="#F4DF65" transform="translate(29.4375,21.6875)"/>
<path d="M0 0 C1.65 0 3.3 0 5 0 C4.01 0.33 3.02 0.66 2 1 C2.05265859 4.77189848 2.14790495 8.54164144 2.25 12.3125 C2.26417969 13.36501953 2.27835937 14.41753906 2.29296875 15.50195312 C2.61174358 25.86213499 4.85036946 34.62912242 12.1171875 42.2734375 C14.90831657 44.8329376 17.82979996 46.92966528 21 49 C20.67 49.66 20.34 50.32 20 51 C10.29098809 45.38594549 4.51055694 38.71778745 0.79614258 28.10961914 C-0.59140819 22.69004412 -0.41930766 17.37034958 -0.25 11.8125 C-0.23195312 10.66974609 -0.21390625 9.52699219 -0.1953125 8.34960938 C-0.14871635 5.56548953 -0.08332038 2.78322111 0 0 Z " fill="#F1D961" transform="translate(4,12)"/>
<path d="M0 0 C0.66 0 1.32 0 2 0 C2.08636719 0.845625 2.17273438 1.69125 2.26171875 2.5625 C3.50798853 12.62412757 6.11228796 19.56594496 14.171875 25.99609375 C16.18248704 27.27900524 16.18248704 27.27900524 19.625 27.125 C23.20582067 25.93139311 25.30330716 24.61737834 28 22 C28.33 21.34 28.66 20.68 29 20 C29.66 20 30.32 20 31 20 C29.60068938 23.30093787 28.03783328 25.09181266 25.1875 27.25 C24.18783203 28.03117187 24.18783203 28.03117187 23.16796875 28.828125 C20.50831768 30.26577422 18.9863933 30.38973372 16 30 C8.71474747 26.42054067 4.22322203 19.70181415 0.84375 12.5546875 C-0.07557893 9.77116379 -0.20287974 7.60799023 -0.125 4.6875 C-0.10695313 3.80449219 -0.08890625 2.92148437 -0.0703125 2.01171875 C-0.04710937 1.34785156 -0.02390625 0.68398438 0 0 Z " fill="#F0D860" transform="translate(11,27)"/>
<path d="M0 0 C0.33 0.66 0.66 1.32 1 2 C2.32 2.33 3.64 2.66 5 3 C5 10.92 5 18.84 5 27 C5.66 27.33 6.32 27.66 7 28 C6.01 28 5.02 28 4 28 C3.67 28.66 3.34 29.32 3 30 C3 29.34 3 28.68 3 28 C-2.28 28 -7.56 28 -13 28 C-13 27.67 -13 27.34 -13 27 C-7.72 27 -2.44 27 3 27 C2.67 19.74 2.34 12.48 2 5 C-0.31 4.01 -2.62 3.02 -5 2 C-5 1.67 -5 1.34 -5 1 C-3.35 0.67 -1.7 0.34 0 0 Z " fill="#F1DA61" transform="translate(50,9)"/>
<path d="M0 0 C4.875 0.875 4.875 0.875 6 2 C6.14518296 3.58597419 6.22713355 5.17784547 6.28125 6.76953125 C6.31863281 7.74083984 6.35601562 8.71214844 6.39453125 9.71289062 C6.42933594 10.73576172 6.46414062 11.75863281 6.5 12.8125 C6.56906241 14.81914677 6.64183728 16.82567003 6.71875 18.83203125 C6.74904297 19.72639893 6.77933594 20.6207666 6.81054688 21.54223633 C6.9140501 23.9862013 6.9140501 23.9862013 7.64257812 26.19799805 C7.76052734 26.79265869 7.87847656 27.38731934 8 28 C7.34 28.66 6.68 29.32 6 30 C6 31.32 6 32.64 6 34 C5.01 34 4.02 34 3 34 C2.67 35.32 2.34 36.64 2 38 C1.34 38 0.68 38 0 38 C0.33 36.35 0.66 34.7 1 33 C2.32 33 3.64 33 5 33 C5 32.34 5 31.68 5 31 C4.34 31 3.68 31 3 31 C3.24447876 29.94002808 3.24447876 29.94002808 3.49389648 28.85864258 C4.01353414 25.92355461 4.11358349 23.24011307 4.09765625 20.26171875 C4.09443359 19.19501953 4.09121094 18.12832031 4.08789062 17.02929688 C4.07951172 15.92650391 4.07113281 14.82371094 4.0625 13.6875 C4.05798828 12.56537109 4.05347656 11.44324219 4.04882812 10.28710938 C4.03707313 7.5246849 4.02064077 4.76237002 4 2 C2.68 1.34 1.36 0.68 0 0 Z " fill="#E1B047" transform="translate(51,10)"/>
<path d="M0 0 C2.69082872 0.17635452 5.32851446 0.61835921 8 1 C8 1.66 8 2.32 8 3 C9.98 3.99 11.96 4.98 14 6 C12.4375 6.75 12.4375 6.75 10 7 C8.15607207 6.05878389 6.48409874 4.98901368 4.78125 3.8125 C2.38294902 2.71853815 1.45415163 3.09155713 -1 4 C-3.77601152 5.26182342 -6.50894591 6.59757706 -9.24609375 7.94140625 C-12.0619672 9.02382002 -14.01586931 9.21121796 -17 9 C-13.82336863 6.36947233 -10.63551274 4.89302942 -6.8125 3.375 C-3.13817167 2.12578012 -3.13817167 2.12578012 0 0 Z " fill="#EFD65F" transform="translate(28,10)"/>
<path d="M0 0 C0.66 0 1.32 0 2 0 C-1.14560937 9.02993337 -8.51042455 13.69069586 -16.6796875 17.96875 C-19 19 -19 19 -21 19 C-21 18.34 -21 17.68 -21 17 C-20.14277344 16.5875 -19.28554688 16.175 -18.40234375 15.75 C-10.75163552 11.88583169 -3.97526383 7.95052766 0 0 Z " fill="#CEA43D" transform="translate(50,48)"/>
<path d="M0 0 C0.99 1.051875 0.99 1.051875 2 2.125 C8.49686041 8.76423739 8.49686041 8.76423739 17 11 C17 10.34 17 9.68 17 9 C17.66 9 18.32 9 19 9 C18.67 9.99 18.34 10.98 18 12 C15.29325564 12.84585761 13.76401672 13.30134017 11 13 C6.54941171 10.18995703 2.92516061 6.36065609 0 2 C0 1.34 0 0.68 0 0 Z " fill="#CEAA3E" transform="translate(16,42)"/>
<path d="M0 0 C2.375 0.6875 2.375 0.6875 3.375 1.6875 C3.5 4.6875 3.5 4.6875 3.375 7.6875 C2.375 8.6875 2.375 8.6875 -0.5625 8.8125 C-3.625 8.6875 -3.625 8.6875 -5.625 7.6875 C-5.8125 4.8125 -5.8125 4.8125 -5.625 1.6875 C-2.625 -0.3125 -2.625 -0.3125 0 0 Z M-2.625 1.6875 C-2.955 3.3375 -3.285 4.9875 -3.625 6.6875 C-0.57586772 7.69861093 -0.57586772 7.69861093 2.375 6.6875 C2.375 5.3675 2.375 4.0475 2.375 2.6875 C0.725 2.3575 -0.925 2.0275 -2.625 1.6875 Z " fill="#DDB446" transform="translate(30.625,23.3125)"/>
<path d="M0 0 C2.375 2 2.375 2 4 4 C3.01 4 2.02 4 1 4 C0.67 3.67 0.34 3.34 0 3 C-3.45821402 2.74996036 -3.45821402 2.74996036 -7 3 C-9.5654594 5.5654594 -9.54046087 7.47686668 -10 11 C-10.33 11 -10.66 11 -11 11 C-11.3125 7.75 -11.3125 7.75 -11 4 C-7.69532025 0.20933794 -4.96286146 -0.84474238 0 0 Z " fill="#C5A03D" transform="translate(33,20)"/>
<path d="M0 0 C1.670625 0.7425 1.670625 0.7425 3.375 1.5 C6.65415749 3.1274506 6.65415749 3.1274506 9 3 C9.33 2.34 9.66 1.68 10 1 C11.32 1.99 12.64 2.98 14 4 C12.68 4.33 11.36 4.66 10 5 C10.33 5.66 10.66 6.32 11 7 C6.24518354 6.42365861 3.02951788 4.44931479 -1 2 C-0.67 1.34 -0.34 0.68 0 0 Z " fill="#E2C241" transform="translate(18,59)"/>
<path d="M0 0 C0.99 1.051875 0.99 1.051875 2 2.125 C5.7944002 5.93027241 10.1786723 9.58933615 15 12 C15 12.66 15 13.32 15 14 C8.82952674 12.2645544 4.42122925 7.42122925 0 3 C0 2.01 0 1.02 0 0 Z " fill="#CFA03D" transform="translate(12,48)"/>
<path d="M0 0 C1.48828125 1.08203125 1.48828125 1.08203125 3 3 C3.29296875 6.13671875 3.29296875 6.13671875 3.1875 9.6875 C3.14689453 11.45673828 3.14689453 11.45673828 3.10546875 13.26171875 C3.07066406 14.16535156 3.03585938 15.06898437 3 16 C2.34 16 1.68 16 1 16 C1 12.04 1 8.08 1 4 C0.01 3.67 -0.98 3.34 -2 3 C-1.34 2.67 -0.68 2.34 0 2 C0 1.34 0 0.68 0 0 Z " fill="#EFD65A" transform="translate(45,15)"/>
<path d="M0 0 C0.33 0 0.66 0 1 0 C1 2.97 1 5.94 1 9 C1.99 8.67 2.98 8.34 4 8 C4.66 8.66 5.32 9.32 6 10 C5.67 10.66 5.34 11.32 5 12 C3.02 12 1.04 12 -1 12 C-0.67 11.34 -0.34 10.68 0 10 C0.06996014 8.29297265 0.08440154 6.58331997 0.0625 4.875 C0.05347656 3.96492188 0.04445313 3.05484375 0.03515625 2.1171875 C0.02355469 1.41851562 0.01195313 0.71984375 0 0 Z " fill="#E9C24A" transform="translate(30,34)"/>
<path d="M0 0 C2 3.75 2 3.75 2 6 C4.97 6.495 4.97 6.495 8 7 C7.01 7.66 6.02 8.32 5 9 C1.8125 8.125 1.8125 8.125 -1 7 C-0.67 4.69 -0.34 2.38 0 0 Z " fill="#ECD054" transform="translate(23,25)"/>
<path d="M0 0 C0.99 0 1.98 0 3 0 C3 0.66 3 1.32 3 2 C3.66 2.33 4.32 2.66 5 3 C4.01 3.495 4.01 3.495 3 4 C2.01 3.67 1.02 3.34 0 3 C-0.33 3.99 -0.66 4.98 -1 6 C-1.625 4.125 -1.625 4.125 -2 2 C-1.34 1.34 -0.68 0.68 0 0 Z " fill="#ECD255" transform="translate(28,1)"/>
<path d="M0 0 C0.33 0.66 0.66 1.32 1 2 C1.66 2.33 2.32 2.66 3 3 C0.6875 3.6875 0.6875 3.6875 -2 4 C-3.8125 2.5625 -3.8125 2.5625 -5 1 C-3.35 0.67 -1.7 0.34 0 0 Z " fill="#EDD355" transform="translate(50,9)"/>
</svg>
